<svg width="24" height="24" viewBox="0 0 24 24" fill="none" xmlns="http://www.w3.org/2000/svg">
<path d="M12 3C10.9391 3 9.92172 3.42143 9.17157 4.17157C8.42143 4.92172 8 5.93913 8 7C8 8.06087 8.42143 9.07828 9.17157 9.82843C9.92172 10.5786 10.9391 11 12 11C13.0609 11 14.0783 10.5786 14.8284 9.82843C15.5786 9.07828 16 8.06087 16 7C16 5.93913 15.5786 4.92172 14.8284 4.17157C14.0783 3.42143 13.0609 3 12 3ZM12 14C8.859 14 3 15.545 3 18.5V20C3 20.5523 3.44772 21 4 21H11.2699C11.7809 21 12.1467 20.5058 12.0742 20H12.0801C12.0331 19.673 12 19.34 12 19C12 17.923 12.2515 16.9071 12.6875 15.9961C12.8707 15.6117 13.086 15.2455 13.332 14.9028C13.5692 14.5724 13.3931 14.0781 12.9878 14.0441C12.638 14.0147 12.3062 14 12 14ZM18.0645 14C17.9355 14 17.8275 14.0966 17.8125 14.2246L17.6953 15.2363C17.2113 15.4043 16.7745 15.6593 16.3945 15.9883L15.457 15.582C15.339 15.531 15.2027 15.5775 15.1387 15.6895L14.2012 17.3105C14.1372 17.4225 14.1665 17.5646 14.2695 17.6406L15.0762 18.2383C15.0292 18.4863 15 18.74 15 19C15 19.26 15.0282 19.5128 15.0762 19.7598L14.2715 20.3594C14.1685 20.4364 14.1381 20.5785 14.2031 20.6895L15.1387 22.3105C15.2027 22.4225 15.341 22.467 15.459 22.416L16.3945 22.0117C16.7735 22.3397 17.2113 22.5957 17.6953 22.7637L17.8125 23.7754C17.8265 23.9044 17.9355 24 18.0645 24H19.9355C20.0645 24 20.1725 23.9034 20.1875 23.7754L20.3047 22.7637C20.7887 22.5957 21.2255 22.3407 21.6055 22.0117L22.543 22.418C22.661 22.469 22.7973 22.4215 22.8613 22.3105L23.7988 20.6895C23.8628 20.5775 23.8335 20.4354 23.7305 20.3594L22.9238 19.7598C22.9718 19.5128 23 19.26 23 19C23 18.74 22.9718 18.4872 22.9238 18.2402L23.7285 17.6406C23.8315 17.5636 23.8619 17.4215 23.7969 17.3105L22.8613 15.6895C22.7973 15.5775 22.659 15.533 22.541 15.584L21.6055 15.9883C21.2265 15.6603 20.7887 15.4043 20.3047 15.2363L20.1875 14.2246C20.1735 14.0956 20.0645 14 19.9355 14H18.0645ZM19 17.25C19.966 17.25 20.75 18.033 20.75 19C20.75 19.966 19.966 20.75 19 20.75C18.034 20.75 17.25 19.966 17.25 19C17.25 18.033 18.034 17.25 19 17.25Z" fill="white"/>
</svg>
