<svg width="24" height="24" viewBox="0 0 24 24" fill="none" xmlns="http://www.w3.org/2000/svg">
<g clip-path="url(#clip0_1_362)">
<path d="M16.5 12C17.88 12 18.99 10.88 18.99 9.5C18.99 8.12 17.88 7 16.5 7C15.12 7 14 8.12 14 9.5C14 10.88 15.12 12 16.5 12ZM9 11C10.655 11 11.99 9.655 11.99 8C11.99 6.345 10.655 5 9 5C7.345 5 6 6.345 6 8C6 9.655 7.345 11 9 11ZM16.5 14C14.665 14 11 14.92 11 16.75V19H22V16.75C22 14.92 18.335 14 16.5 14ZM9 13C6.665 13 2 14.17 2 16.5V19H9V16.75C9 15.9 9.335 14.415 11.37 13.28C10.5 13.095 9.655 13 9 13Z" fill="white"/>
</g>
<defs>
<clipPath id="clip0_1_362">
<rect width="24" height="24" fill="white"/>
</clipPath>
</defs>
</svg>
